 <svg version="1.0" xmlns="http://www.w3.org/2000/svg" width="700.000000pt" height="525.000000pt" viewBox="0 0 700.000000 525.000000" preserveAspectRatio="xMidYMid meet">
<metadata>
Created by potrace 1.12, written by Peter Selinger 2001-2015
</metadata>
<g transform="translate(0.000000,525.000000) scale(0.100000,-0.100000)" fill="#DEB992" stroke="none">
<path d="M3175 3049 c-59 -32 -99 -67 -121 -105 -46 -78 -28 -165 36 -179 16
-4 30 -10 30 -14 0 -4 -20 -70 -45 -147 -82 -251 -86 -282 -43 -305 14 -8 28
-7 48 1 36 15 65 75 116 238 20 68 41 119 45 115 4 -5 16 -68 28 -141 30 -188
60 -237 135 -218 28 7 41 36 56 131 15 96 63 283 112 443 36 119 39 136 27
158 -11 21 -19 24 -48 22 -48 -4 -71 -40 -117 -189 -21 -65 -38 -118 -40 -117
-1 2 -10 48 -19 103 -20 114 -51 185 -90 203 -32 15 -83 15 -110 1z"></path>
<path d="M3753 3034 c-61 -30 -118 -89 -145 -152 -16 -35 -19 -59 -15 -104 7
-78 34 -112 146 -182 97 -62 123 -96 101 -136 -14 -25 -67 -50 -108 -50 -16 0
-41 9 -56 21 -30 24 -34 58 -11 112 37 88 -52 128 -124 56 -48 -48 -59 -149
-23 -215 35 -65 140 -111 229 -100 167 20 266 138 233 277 -10 39 -24 61 -62
100 l-51 49 31 0 c37 0 59 28 91 113 38 105 19 203 -45 227 -49 19 -136 12
-191 -16z m117 -101 c0 -10 -9 -42 -20 -71 -24 -62 -25 -88 -6 -124 l15 -28
-32 16 c-69 35 -87 54 -87 88 0 42 35 94 80 117 43 23 50 24 50 2z"></path>
</g>
</svg>